<svg version="1.1" viewBox="0.0 0.0 600.0 371.0" fill="none" stroke="none" stroke-linecap="square" stroke-miterlimit="10" width="600" height="371" xmlns:xlink="http://www.w3.org/1999/xlink" xmlns="http://www.w3.org/2000/svg"><path fill="#ffffff" d="M0 0L600.0 0L600.0 371.0L0 371.0L0 0Z" fill-rule="nonzero"/><path stroke="#333333" stroke-width="1.0" stroke-linecap="butt" d="M77.5 332.5L581.5 332.5" fill-rule="nonzero"/><path stroke="#cccccc" stroke-width="1.0" stroke-linecap="butt" d="M77.5 264.5L581.5 264.5" fill-rule="nonzero"/><path stroke="#cccccc" stroke-width="1.0" stroke-linecap="butt" d="M77.5 197.5L581.5 197.5" fill-rule="nonzero"/><path stroke="#cccccc" stroke-width="1.0" stroke-linecap="butt" d="M77.5 129.5L581.5 129.5" fill-rule="nonzero"/><path stroke="#cccccc" stroke-width="1.0" stroke-linecap="butt" d="M77.5 61.5L581.5 61.5" fill-rule="nonzero"/><clipPath id="id_0"><path d="M77.55 61.916668L581.45 61.916668L581.45 332.45L77.55 332.45L77.55 61.916668Z" clip-rule="nonzero"/></clipPath><path stroke="#000000" stroke-width="2.0" stroke-linecap="butt" stroke-opacity="0.0" clip-path="url(#id_0)" d="M228.0 332.0L130.0 332.0L130.0 224.0C130.0 222.89543 130.89543 222.0 132.0 222.0L226.0 222.0C227.10457 222.0 228.0 222.89543 228.0 224.0Z" fill-rule="nonzero"/><path fill="#4285f4" clip-path="url(#id_0)" d="M228.0 332.0L130.0 332.0L130.0 224.0C130.0 222.89543 130.89543 222.0 132.0 222.0L226.0 222.0C227.10457 222.0 228.0 222.89543 228.0 224.0Z" fill-rule="nonzero"/><path stroke="#000000" stroke-width="2.0" stroke-linecap="butt" stroke-opacity="0.0" clip-path="url(#id_0)" d="M379.0 332.0L281.0 332.0L281.0 112.0C281.0 110.89543 281.89542 110.0 283.0 110.0L377.0 110.0C378.10458 110.0 379.0 110.89543 379.0 112.0Z" fill-rule="nonzero"/><path fill="#4285f4" clip-path="url(#id_0)" d="M379.0 332.0L281.0 332.0L281.0 112.0C281.0 110.89543 281.89542 110.0 283.0 110.0L377.0 110.0C378.10458 110.0 379.0 110.89543 379.0 112.0Z" fill-rule="nonzero"/><path stroke="#000000" stroke-width="2.0" stroke-linecap="butt" stroke-opacity="0.0" clip-path="url(#id_0)" d="M529.0 332.0L431.0 332.0L431.0 159.0C431.0 157.89543 431.89542 157.0 433.0 157.0L527.0 157.0C528.10455 157.0 529.0 157.89543 529.0 159.0Z" fill-rule="nonzero"/><path fill="#4285f4" clip-path="url(#id_0)" d="M529.0 332.0L431.0 332.0L431.0 159.0C431.0 157.89543 431.89542 157.0 433.0 157.0L527.0 157.0C528.10455 157.0 529.0 157.89543 529.0 159.0Z" fill-rule="nonzero"/><path stroke="#ffffff" stroke-width="3.0" stroke-linejoin="round" stroke-linecap="round" d="M168.1875 206.80186L166.5 206.80186L166.5 200.27061L164.48438 200.89561L164.48438 199.52061L168.01562 198.25499L168.1875 198.25499L168.1875 206.80186ZM171.23438 205.97374Q171.23438 205.56749 171.5 205.31749Q171.78125 205.06749 172.1875 205.06749Q172.60938 205.06749 172.875 205.31749Q173.15625 205.56749 173.15625 205.97374Q173.15625 206.36436 172.875 206.61436Q172.60938 206.86436 172.1875 206.86436Q171.78125 206.86436 171.5 206.61436Q171.23438 206.36436 171.23438 205.97374ZM178.67188 198.17686L178.67188 199.58311L178.51562 199.58311Q177.35938 199.59874 176.65625 200.17686Q175.96875 200.75499 175.82812 201.78624Q176.5 201.09874 177.53125 201.09874Q178.65625 201.09874 179.3125 201.89561Q179.96875 202.69249 179.96875 203.98936Q179.96875 204.81749 179.60938 205.48936Q179.25 206.16124 178.57812 206.55186Q177.92188 206.92686 177.09375 206.92686Q175.75 206.92686 174.92188 205.98936Q174.09375 205.03624 174.09375 203.47374L174.09375 202.86436Q174.09375 201.47374 174.60938 200.41124Q175.14062 199.34874 176.10938 198.77061Q177.09375 198.19249 178.39062 198.17686L178.67188 198.17686ZM177.01562 202.45811Q176.60938 202.45811 176.26562 202.67686Q175.9375 202.87999 175.78125 203.23936L175.78125 203.75499Q175.78125 204.59874 176.10938 205.08311Q176.45312 205.55186 177.0625 205.55186Q177.60938 205.55186 177.9375 205.12999Q178.28125 204.69249 178.28125 204.00499Q178.28125 203.30186 177.9375 202.87999Q177.59375 202.45811 177.01562 202.45811ZM182.79688 201.78624L183.70312 201.78624Q184.34375 201.78624 184.65625 201.47374Q184.96875 201.14561 184.96875 200.61436Q184.96875 200.09874 184.65625 199.81749Q184.35938 199.52061 183.8125 199.52061Q183.32812 199.52061 183.0 199.78624Q182.67188 200.05186 182.67188 200.47374L180.98438 200.47374Q180.98438 199.81749 181.34375 199.28624Q181.70312 198.75499 182.34375 198.45811Q183.0 198.14561 183.78125 198.14561Q185.125 198.14561 185.89062 198.80186Q186.67188 199.44249 186.67188 200.58311Q186.67188 201.17686 186.3125 201.67686Q185.95312 202.16124 185.375 202.41124Q186.09375 202.67686 186.4375 203.19249Q186.79688 203.70811 186.79688 204.41124Q186.79688 205.55186 185.96875 206.23936Q185.14062 206.92686 183.78125 206.92686Q182.5 206.92686 181.6875 206.25499Q180.875 205.56749 180.875 204.45811L182.5625 204.45811Q182.5625 204.94249 182.92188 205.25499Q183.29688 205.55186 183.8125 205.55186Q184.42188 205.55186 184.76562 205.23936Q185.10938 204.91124 185.10938 204.37999Q185.10938 203.11436 183.70312 203.11436L182.79688 203.11436L182.79688 201.78624ZM192.67188 198.17686L192.67188 199.58311L192.51562 199.58311Q191.35938 199.59874 190.65625 200.17686Q189.96875 200.75499 189.82812 201.78624Q190.5 201.09874 191.53125 201.09874Q192.65625 201.09874 193.3125 201.89561Q193.96875 202.69249 193.96875 203.98936Q193.96875 204.81749 193.60938 205.48936Q193.25 206.16124 192.57812 206.55186Q191.92188 206.92686 191.09375 206.92686Q189.75 206.92686 188.92188 205.98936Q188.09375 205.03624 188.09375 203.47374L188.09375 202.86436Q188.09375 201.47374 188.60938 200.41124Q189.14062 199.34874 190.10938 198.77061Q191.09375 198.19249 192.39062 198.17686L192.67188 198.17686ZM191.01562 202.45811Q190.60938 202.45811 190.26562 202.67686Q189.9375 202.87999 189.78125 203.23936L189.78125 203.75499Q189.78125 204.59874 190.10938 205.08311Q190.45312 205.55186 191.0625 205.55186Q191.60938 205.55186 191.9375 205.12999Q192.28125 204.69249 192.28125 204.00499Q192.28125 203.30186 191.9375 202.87999Q191.59375 202.45811 191.01562 202.45811Z" fill-rule="nonzero"/><path fill="#4285f4" d="M168.1875 206.80186L166.5 206.80186L166.5 200.27061L164.48438 200.89561L164.48438 199.52061L168.01562 198.25499L168.1875 198.25499L168.1875 206.80186ZM171.23438 205.97374Q171.23438 205.56749 171.5 205.31749Q171.78125 205.06749 172.1875 205.06749Q172.60938 205.06749 172.875 205.31749Q173.15625 205.56749 173.15625 205.97374Q173.15625 206.36436 172.875 206.61436Q172.60938 206.86436 172.1875 206.86436Q171.78125 206.86436 171.5 206.61436Q171.23438 206.36436 171.23438 205.97374ZM178.67188 198.17686L178.67188 199.58311L178.51562 199.58311Q177.35938 199.59874 176.65625 200.17686Q175.96875 200.75499 175.82812 201.78624Q176.5 201.09874 177.53125 201.09874Q178.65625 201.09874 179.3125 201.89561Q179.96875 202.69249 179.96875 203.98936Q179.96875 204.81749 179.60938 205.48936Q179.25 206.16124 178.57812 206.55186Q177.92188 206.92686 177.09375 206.92686Q175.75 206.92686 174.92188 205.98936Q174.09375 205.03624 174.09375 203.47374L174.09375 202.86436Q174.09375 201.47374 174.60938 200.41124Q175.14062 199.34874 176.10938 198.77061Q177.09375 198.19249 178.39062 198.17686L178.67188 198.17686ZM177.01562 202.45811Q176.60938 202.45811 176.26562 202.67686Q175.9375 202.87999 175.78125 203.23936L175.78125 203.75499Q175.78125 204.59874 176.10938 205.08311Q176.45312 205.55186 177.0625 205.55186Q177.60938 205.55186 177.9375 205.12999Q178.28125 204.69249 178.28125 204.00499Q178.28125 203.30186 177.9375 202.87999Q177.59375 202.45811 177.01562 202.45811ZM182.79688 201.78624L183.70312 201.78624Q184.34375 201.78624 184.65625 201.47374Q184.96875 201.14561 184.96875 200.61436Q184.96875 200.09874 184.65625 199.81749Q184.35938 199.52061 183.8125 199.52061Q183.32812 199.52061 183.0 199.78624Q182.67188 200.05186 182.67188 200.47374L180.98438 200.47374Q180.98438 199.81749 181.34375 199.28624Q181.70312 198.75499 182.34375 198.45811Q183.0 198.14561 183.78125 198.14561Q185.125 198.14561 185.89062 198.80186Q186.67188 199.44249 186.67188 200.58311Q186.67188 201.17686 186.3125 201.67686Q185.95312 202.16124 185.375 202.41124Q186.09375 202.67686 186.4375 203.19249Q186.79688 203.70811 186.79688 204.41124Q186.79688 205.55186 185.96875 206.23936Q185.14062 206.92686 183.78125 206.92686Q182.5 206.92686 181.6875 206.25499Q180.875 205.56749 180.875 204.45811L182.5625 204.45811Q182.5625 204.94249 182.92188 205.25499Q183.29688 205.55186 183.8125 205.55186Q184.42188 205.55186 184.76562 205.23936Q185.10938 204.91124 185.10938 204.37999Q185.10938 203.11436 183.70312 203.11436L182.79688 203.11436L182.79688 201.78624ZM192.67188 198.17686L192.67188 199.58311L192.51562 199.58311Q191.35938 199.59874 190.65625 200.17686Q189.96875 200.75499 189.82812 201.78624Q190.5 201.09874 191.53125 201.09874Q192.65625 201.09874 193.3125 201.89561Q193.96875 202.69249 193.96875 203.98936Q193.96875 204.81749 193.60938 205.48936Q193.25 206.16124 192.57812 206.55186Q191.92188 206.92686 191.09375 206.92686Q189.75 206.92686 188.92188 205.98936Q188.09375 205.03624 188.09375 203.47374L188.09375 202.86436Q188.09375 201.47374 188.60938 200.41124Q189.14062 199.34874 190.10938 198.77061Q191.09375 198.19249 192.39062 198.17686L192.67188 198.17686ZM191.01562 202.45811Q190.60938 202.45811 190.26562 202.67686Q189.9375 202.87999 189.78125 203.23936L189.78125 203.75499Q189.78125 204.59874 190.10938 205.08311Q190.45312 205.55186 191.0625 205.55186Q191.60938 205.55186 191.9375 205.12999Q192.28125 204.69249 192.28125 204.00499Q192.28125 203.30186 191.9375 202.87999Q191.59375 202.45811 191.01562 202.45811Z" fill-rule="nonzero"/><path stroke="#ffffff" stroke-width="3.0" stroke-linejoin="round" stroke-linecap="round" d="M313.29688 89.81249L314.20312 89.81249Q314.84375 89.81249 315.15625 89.49999Q315.46875 89.17187 315.46875 88.64062Q315.46875 88.12499 315.15625 87.84374Q314.85938 87.54687 314.3125 87.54687Q313.82812 87.54687 313.5 87.81249Q313.17188 88.07812 313.17188 88.49999L311.48438 88.49999Q311.48438 87.84374 311.84375 87.31249Q312.20312 86.78124 312.84375 86.48437Q313.5 86.17187 314.28125 86.17187Q315.625 86.17187 316.39062 86.82812Q317.17188 87.46874 317.17188 88.60937Q317.17188 89.20312 316.8125 89.70312Q316.45312 90.18749 315.875 90.43749Q316.59375 90.70312 316.9375 91.21874Q317.29688 91.73437 317.29688 92.43749Q317.29688 93.57812 316.46875 94.26562Q315.64062 94.95312 314.28125 94.95312Q313.0 94.95312 312.1875 94.28124Q311.375 93.59374 311.375 92.48437L313.0625 92.48437Q313.0625 92.96874 313.42188 93.28124Q313.79688 93.57812 314.3125 93.57812Q314.92188 93.57812 315.26562 93.26562Q315.60938 92.93749 315.60938 92.40624Q315.60938 91.14062 314.20312 91.14062L313.29688 91.14062L313.29688 89.81249ZM318.73438 93.99999Q318.73438 93.59374 319.0 93.34374Q319.28125 93.09374 319.6875 93.09374Q320.10938 93.09374 320.375 93.34374Q320.65625 93.59374 320.65625 93.99999Q320.65625 94.39062 320.375 94.64062Q320.10938 94.89062 319.6875 94.89062Q319.28125 94.89062 319.0 94.64062Q318.73438 94.39062 318.73438 93.99999ZM327.42188 94.82812L321.57812 94.82812L321.57812 93.67187L324.34375 90.71874Q324.90625 90.10937 325.17188 89.64062Q325.45312 89.17187 325.45312 88.76562Q325.45312 88.18749 325.15625 87.87499Q324.875 87.54687 324.34375 87.54687Q323.76562 87.54687 323.4375 87.93749Q323.10938 88.32812 323.10938 88.98437L321.40625 88.98437Q321.40625 88.20312 321.78125 87.56249Q322.15625 86.90624 322.82812 86.54687Q323.51562 86.17187 324.375 86.17187Q325.6875 86.17187 326.42188 86.81249Q327.15625 87.43749 327.15625 88.59374Q327.15625 89.23437 326.82812 89.89062Q326.5 90.54687 325.70312 91.42187L323.76562 93.46874L327.42188 93.46874L327.42188 94.82812ZM332.54688 91.42187Q331.875 92.06249 331.0 92.06249Q329.85938 92.06249 329.17188 91.29687Q328.5 90.51562 328.5 89.20312Q328.5 88.35937 328.85938 87.65624Q329.23438 86.95312 329.89062 86.56249Q330.54688 86.17187 331.375 86.17187Q332.21875 86.17187 332.875 86.59374Q333.53125 87.01562 333.89062 87.81249Q334.25 88.60937 334.26562 89.62499L334.26562 90.24999Q334.26562 92.39062 333.20312 93.60937Q332.14062 94.82812 330.1875 94.90624L329.78125 94.90624L329.78125 93.49999L330.15625 93.48437Q332.35938 93.39062 332.54688 91.42187ZM331.40625 90.76562Q331.82812 90.76562 332.10938 90.56249Q332.40625 90.34374 332.5625 90.04687L332.5625 89.35937Q332.5625 88.49999 332.23438 88.03124Q331.90625 87.54687 331.35938 87.54687Q330.84375 87.54687 330.51562 88.01562Q330.1875 88.46874 330.1875 89.17187Q330.1875 89.87499 330.5 90.32812Q330.82812 90.76562 331.40625 90.76562ZM339.6875 94.82812L338.0 94.82812L338.0 88.29687L335.98438 88.92187L335.98438 87.54687L339.51562 86.28124L339.6875 86.28124L339.6875 94.82812ZM347.17188 86.20312L347.17188 87.60937L347.01562 87.60937Q345.85938 87.62499 345.15625 88.20312Q344.46875 88.78124 344.32812 89.81249Q345.0 89.12499 346.03125 89.12499Q347.15625 89.12499 347.8125 89.92187Q348.46875 90.71874 348.46875 92.01562Q348.46875 92.84374 348.10938 93.51562Q347.75 94.18749 347.07812 94.57812Q346.42188 94.95312 345.59375 94.95312Q344.25 94.95312 343.42188 94.01562Q342.59375 93.06249 342.59375 91.49999L342.59375 90.89062Q342.59375 89.49999 343.10938 88.43749Q343.64062 87.37499 344.60938 86.79687Q345.59375 86.21874 346.89062 86.20312L347.17188 86.20312ZM345.51562 90.48437Q345.10938 90.48437 344.76562 90.70312Q344.4375 90.90624 344.28125 91.26562L344.28125 91.78124Q344.28125 92.62499 344.60938 93.10937Q344.95312 93.57812 345.5625 93.57812Q346.10938 93.57812 346.4375 93.15624Q346.78125 92.71874 346.78125 92.03124Q346.78125 91.32812 346.4375 90.90624Q346.09375 90.48437 345.51562 90.48437Z" fill-rule="nonzero"/><path fill="#4285f4" d="M313.29688 89.81249L314.20312 89.81249Q314.84375 89.81249 315.15625 89.49999Q315.46875 89.17187 315.46875 88.64062Q315.46875 88.12499 315.15625 87.84374Q314.85938 87.54687 314.3125 87.54687Q313.82812 87.54687 313.5 87.81249Q313.17188 88.07812 313.17188 88.49999L311.48438 88.49999Q311.48438 87.84374 311.84375 87.31249Q312.20312 86.78124 312.84375 86.48437Q313.5 86.17187 314.28125 86.17187Q315.625 86.17187 316.39062 86.82812Q317.17188 87.46874 317.17188 88.60937Q317.17188 89.20312 316.8125 89.70312Q316.45312 90.18749 315.875 90.43749Q316.59375 90.70312 316.9375 91.21874Q317.29688 91.73437 317.29688 92.43749Q317.29688 93.57812 316.46875 94.26562Q315.64062 94.95312 314.28125 94.95312Q313.0 94.95312 312.1875 94.28124Q311.375 93.59374 311.375 92.48437L313.0625 92.48437Q313.0625 92.96874 313.42188 93.28124Q313.79688 93.57812 314.3125 93.57812Q314.92188 93.57812 315.26562 93.26562Q315.60938 92.93749 315.60938 92.40624Q315.60938 91.14062 314.20312 91.14062L313.29688 91.14062L313.29688 89.81249ZM318.73438 93.99999Q318.73438 93.59374 319.0 93.34374Q319.28125 93.09374 319.6875 93.09374Q320.10938 93.09374 320.375 93.34374Q320.65625 93.59374 320.65625 93.99999Q320.65625 94.39062 320.375 94.64062Q320.10938 94.89062 319.6875 94.89062Q319.28125 94.89062 319.0 94.64062Q318.73438 94.39062 318.73438 93.99999ZM327.42188 94.82812L321.57812 94.82812L321.57812 93.67187L324.34375 90.71874Q324.90625 90.10937 325.17188 89.64062Q325.45312 89.17187 325.45312 88.76562Q325.45312 88.18749 325.15625 87.87499Q324.875 87.54687 324.34375 87.54687Q323.76562 87.54687 323.4375 87.93749Q323.10938 88.32812 323.10938 88.98437L321.40625 88.98437Q321.40625 88.20312 321.78125 87.56249Q322.15625 86.90624 322.82812 86.54687Q323.51562 86.17187 324.375 86.17187Q325.6875 86.17187 326.42188 86.81249Q327.15625 87.43749 327.15625 88.59374Q327.15625 89.23437 326.82812 89.89062Q326.5 90.54687 325.70312 91.42187L323.76562 93.46874L327.42188 93.46874L327.42188 94.82812ZM332.54688 91.42187Q331.875 92.06249 331.0 92.06249Q329.85938 92.06249 329.17188 91.29687Q328.5 90.51562 328.5 89.20312Q328.5 88.35937 328.85938 87.65624Q329.23438 86.95312 329.89062 86.56249Q330.54688 86.17187 331.375 86.17187Q332.21875 86.17187 332.875 86.59374Q333.53125 87.01562 333.89062 87.81249Q334.25 88.60937 334.26562 89.62499L334.26562 90.24999Q334.26562 92.39062 333.20312 93.60937Q332.14062 94.82812 330.1875 94.90624L329.78125 94.90624L329.78125 93.49999L330.15625 93.48437Q332.35938 93.39062 332.54688 91.42187ZM331.40625 90.76562Q331.82812 90.76562 332.10938 90.56249Q332.40625 90.34374 332.5625 90.04687L332.5625 89.35937Q332.5625 88.49999 332.23438 88.03124Q331.90625 87.54687 331.35938 87.54687Q330.84375 87.54687 330.51562 88.01562Q330.1875 88.46874 330.1875 89.17187Q330.1875 89.87499 330.5 90.32812Q330.82812 90.76562 331.40625 90.76562ZM339.6875 94.82812L338.0 94.82812L338.0 88.29687L335.98438 88.92187L335.98438 87.54687L339.51562 86.28124L339.6875 86.28124L339.6875 94.82812ZM347.17188 86.20312L347.17188 87.60937L347.01562 87.60937Q345.85938 87.62499 345.15625 88.20312Q344.46875 88.78124 344.32812 89.81249Q345.0 89.12499 346.03125 89.12499Q347.15625 89.12499 347.8125 89.92187Q348.46875 90.71874 348.46875 92.01562Q348.46875 92.84374 348.10938 93.51562Q347.75 94.18749 347.07812 94.57812Q346.42188 94.95312 345.59375 94.95312Q344.25 94.95312 343.42188 94.01562Q342.59375 93.06249 342.59375 91.49999L342.59375 90.89062Q342.59375 89.49999 343.10938 88.43749Q343.64062 87.37499 344.60938 86.79687Q345.59375 86.21874 346.89062 86.20312L347.17188 86.20312ZM345.51562 90.48437Q345.10938 90.48437 344.76562 90.70312Q344.4375 90.90624 344.28125 91.26562L344.28125 91.78124Q344.28125 92.62499 344.60938 93.10937Q344.95312 93.57812 345.5625 93.57812Q346.10938 93.57812 346.4375 93.15624Q346.78125 92.71874 346.78125 92.03124Q346.78125 91.32812 346.4375 90.90624Q346.09375 90.48437 345.51562 90.48437Z" fill-rule="nonzero"/><path stroke="#ffffff" stroke-width="3.0" stroke-linejoin="round" stroke-linecap="round" d="M470.92188 142.1444L465.07812 142.1444L465.07812 140.98814L467.84375 138.03502Q468.40625 137.42564 468.67188 136.9569Q468.95312 136.48814 468.95312 136.0819Q468.95312 135.50377 468.65625 135.19127Q468.375 134.86314 467.84375 134.86314Q467.26562 134.86314 466.9375 135.25377Q466.60938 135.6444 466.60938 136.30064L464.90625 136.30064Q464.90625 135.5194 465.28125 134.87877Q465.65625 134.22252 466.32812 133.86314Q467.01562 133.48814 467.875 133.48814Q469.1875 133.48814 469.92188 134.12877Q470.65625 134.75377 470.65625 135.91002Q470.65625 136.55064 470.32812 137.2069Q470.0 137.86314 469.20312 138.73814L467.26562 140.78502L470.92188 140.78502L470.92188 142.1444ZM472.23438 141.31627Q472.23438 140.91002 472.5 140.66002Q472.78125 140.41002 473.1875 140.41002Q473.60938 140.41002 473.875 140.66002Q474.15625 140.91002 474.15625 141.31627Q474.15625 141.7069 473.875 141.9569Q473.60938 142.2069 473.1875 142.2069Q472.78125 142.2069 472.5 141.9569Q472.23438 141.7069 472.23438 141.31627ZM475.32812 137.94127L475.82812 133.61314L480.60938 133.61314L480.60938 135.0194L477.21875 135.0194L477.0 136.86314Q477.60938 136.53502 478.28125 136.53502Q479.5 136.53502 480.1875 137.30064Q480.89062 138.05064 480.89062 139.41002Q480.89062 140.23814 480.53125 140.8944Q480.1875 141.53502 479.53125 141.91002Q478.89062 142.2694 478.0 142.2694Q477.23438 142.2694 476.5625 141.9569Q475.90625 141.62877 475.51562 141.06627Q475.14062 140.50377 475.10938 139.7694L476.79688 139.7694Q476.84375 140.30064 477.15625 140.59752Q477.48438 140.8944 478.0 140.8944Q478.57812 140.8944 478.875 140.48814Q479.1875 140.06627 479.1875 139.31627Q479.1875 138.5819 478.82812 138.2069Q478.48438 137.81627 477.82812 137.81627Q477.21875 137.81627 476.84375 138.12877L476.6875 138.28502L475.32812 137.94127ZM486.04688 138.73814Q485.375 139.37877 484.5 139.37877Q483.35938 139.37877 482.67188 138.61314Q482.0 137.8319 482.0 136.5194Q482.0 135.67564 482.35938 134.97252Q482.73438 134.2694 483.39062 133.87877Q484.04688 133.48814 484.875 133.48814Q485.71875 133.48814 486.375 133.91002Q487.03125 134.3319 487.39062 135.12877Q487.75 135.92564 487.76562 136.94127L487.76562 137.56627Q487.76562 139.7069 486.70312 140.92564Q485.64062 142.1444 483.6875 142.22252L483.28125 142.22252L483.28125 140.81627L483.65625 140.80064Q485.85938 140.7069 486.04688 138.73814ZM484.90625 138.0819Q485.32812 138.0819 485.60938 137.87877Q485.90625 137.66002 486.0625 137.36314L486.0625 136.67564Q486.0625 135.81627 485.73438 135.34752Q485.40625 134.86314 484.85938 134.86314Q484.34375 134.86314 484.01562 135.3319Q483.6875 135.78502 483.6875 136.48814Q483.6875 137.19127 484.0 137.6444Q484.32812 138.0819 484.90625 138.0819ZM494.92188 142.1444L489.07812 142.1444L489.07812 140.98814L491.84375 138.03502Q492.40625 137.42564 492.67188 136.9569Q492.95312 136.48814 492.95312 136.0819Q492.95312 135.50377 492.65625 135.19127Q492.375 134.86314 491.84375 134.86314Q491.26562 134.86314 490.9375 135.25377Q490.60938 135.6444 490.60938 136.30064L488.90625 136.30064Q488.90625 135.5194 489.28125 134.87877Q489.65625 134.22252 490.32812 133.86314Q491.01562 133.48814 491.875 133.48814Q493.1875 133.48814 493.92188 134.12877Q494.65625 134.75377 494.65625 135.91002Q494.65625 136.55064 494.32812 137.2069Q494.0 137.86314 493.20312 138.73814L491.26562 140.78502L494.92188 140.78502L494.92188 142.1444Z" fill-rule="nonzero"/><path fill="#4285f4" d="M470.92188 142.1444L465.07812 142.1444L465.07812 140.98814L467.84375 138.03502Q468.40625 137.42564 468.67188 136.9569Q468.95312 136.48814 468.95312 136.0819Q468.95312 135.50377 468.65625 135.19127Q468.375 134.86314 467.84375 134.86314Q467.26562 134.86314 466.9375 135.25377Q466.60938 135.6444 466.60938 136.30064L464.90625 136.30064Q464.90625 135.5194 465.28125 134.87877Q465.65625 134.22252 466.32812 133.86314Q467.01562 133.48814 467.875 133.48814Q469.1875 133.48814 469.92188 134.12877Q470.65625 134.75377 470.65625 135.91002Q470.65625 136.55064 470.32812 137.2069Q470.0 137.86314 469.20312 138.73814L467.26562 140.78502L470.92188 140.78502L470.92188 142.1444ZM472.23438 141.31627Q472.23438 140.91002 472.5 140.66002Q472.78125 140.41002 473.1875 140.41002Q473.60938 140.41002 473.875 140.66002Q474.15625 140.91002 474.15625 141.31627Q474.15625 141.7069 473.875 141.9569Q473.60938 142.2069 473.1875 142.2069Q472.78125 142.2069 472.5 141.9569Q472.23438 141.7069 472.23438 141.31627ZM475.32812 137.94127L475.82812 133.61314L480.60938 133.61314L480.60938 135.0194L477.21875 135.0194L477.0 136.86314Q477.60938 136.53502 478.28125 136.53502Q479.5 136.53502 480.1875 137.30064Q480.89062 138.05064 480.89062 139.41002Q480.89062 140.23814 480.53125 140.8944Q480.1875 141.53502 479.53125 141.91002Q478.89062 142.2694 478.0 142.2694Q477.23438 142.2694 476.5625 141.9569Q475.90625 141.62877 475.51562 141.06627Q475.14062 140.50377 475.10938 139.7694L476.79688 139.7694Q476.84375 140.30064 477.15625 140.59752Q477.48438 140.8944 478.0 140.8944Q478.57812 140.8944 478.875 140.48814Q479.1875 140.06627 479.1875 139.31627Q479.1875 138.5819 478.82812 138.2069Q478.48438 137.81627 477.82812 137.81627Q477.21875 137.81627 476.84375 138.12877L476.6875 138.28502L475.32812 137.94127ZM486.04688 138.73814Q485.375 139.37877 484.5 139.37877Q483.35938 139.37877 482.67188 138.61314Q482.0 137.8319 482.0 136.5194Q482.0 135.67564 482.35938 134.97252Q482.73438 134.2694 483.39062 133.87877Q484.04688 133.48814 484.875 133.48814Q485.71875 133.48814 486.375 133.91002Q487.03125 134.3319 487.39062 135.12877Q487.75 135.92564 487.76562 136.94127L487.76562 137.56627Q487.76562 139.7069 486.70312 140.92564Q485.64062 142.1444 483.6875 142.22252L483.28125 142.22252L483.28125 140.81627L483.65625 140.80064Q485.85938 140.7069 486.04688 138.73814ZM484.90625 138.0819Q485.32812 138.0819 485.60938 137.87877Q485.90625 137.66002 486.0625 137.36314L486.0625 136.67564Q486.0625 135.81627 485.73438 135.34752Q485.40625 134.86314 484.85938 134.86314Q484.34375 134.86314 484.01562 135.3319Q483.6875 135.78502 483.6875 136.48814Q483.6875 137.19127 484.0 137.6444Q484.32812 138.0819 484.90625 138.0819ZM494.92188 142.1444L489.07812 142.1444L489.07812 140.98814L491.84375 138.03502Q492.40625 137.42564 492.67188 136.9569Q492.95312 136.48814 492.95312 136.0819Q492.95312 135.50377 492.65625 135.19127Q492.375 134.86314 491.84375 134.86314Q491.26562 134.86314 490.9375 135.25377Q490.60938 135.6444 490.60938 136.30064L488.90625 136.30064Q488.90625 135.5194 489.28125 134.87877Q489.65625 134.22252 490.32812 133.86314Q491.01562 133.48814 491.875 133.48814Q493.1875 133.48814 493.92188 134.12877Q494.65625 134.75377 494.65625 135.91002Q494.65625 136.55064 494.32812 137.2069Q494.0 137.86314 493.20312 138.73814L491.26562 140.78502L494.92188 140.78502L494.92188 142.1444Z" fill-rule="nonzero"/><path fill="#000000" d="M29.550013 219.29271L20.956263 219.29271L20.956263 217.57396L27.034388 215.54271Q27.893763 215.26146 28.315638 215.13646Q27.846888 214.99583 26.940638 214.68333L20.956263 212.62083L20.956263 211.08958L29.550013 211.08958L29.550013 212.18333L22.362513 212.18333L29.550013 214.68333L29.550013 215.71458L22.237513 218.19896L29.550013 218.19896L29.550013 219.29271ZM27.550013 206.13646L27.675013 205.04271Q28.628138 205.29271 29.159388 205.99583Q29.690638 206.69896 29.690638 207.77708Q29.690638 209.13646 28.846888 209.94896Q28.003138 210.74583 26.487513 210.74583Q24.925013 210.74583 24.065638 209.93333Q23.190638 209.12083 23.190638 207.83958Q23.190638 206.58958 24.034388 205.80833Q24.878138 205.01146 26.425013 205.01146Q26.518763 205.01146 26.706263 205.01146L26.706263 209.65208Q27.737513 209.58958 28.284388 209.07396Q28.815638 208.55833 28.815638 207.77708Q28.815638 207.19896 28.518763 206.79271Q28.206263 206.37083 27.550013 206.13646ZM25.846888 209.58958L25.846888 206.12083Q25.050013 206.18333 24.659388 206.51146Q24.050013 207.02708 24.050013 207.82396Q24.050013 208.55833 24.534388 209.05833Q25.018763 209.54271 25.846888 209.58958ZM29.550013 199.35521L28.768763 199.35521Q29.690638 199.94896 29.690638 201.08958Q29.690638 201.83958 29.284388 202.46458Q28.862513 203.08958 28.128138 203.43333Q27.393763 203.77708 26.440638 203.77708Q25.518763 203.77708 24.753138 203.46458Q23.987513 203.15208 23.596888 202.52708Q23.190638 201.90208 23.190638 201.13646Q23.190638 200.57396 23.425013 200.13646Q23.659388 199.69896 24.034388 199.41771L20.956263 199.41771L20.956263 198.37083L29.550013 198.37083L29.550013 199.35521ZM26.440638 202.68333Q27.643763 202.68333 28.237513 202.18333Q28.815638 201.68333 28.815638 200.99583Q28.815638 200.30833 28.253138 199.82396Q27.690638 199.33958 26.534388 199.33958Q25.253138 199.33958 24.659388 199.83958Q24.065638 200.32396 24.065638 201.04271Q24.065638 201.74583 24.643763 202.21458Q25.206263 202.68333 26.440638 202.68333ZM22.175013 196.38646L20.956263 196.38646L20.956263 195.32396L22.175013 195.32396L22.175013 196.38646ZM29.550013 196.38646L23.331263 196.38646L23.331263 195.32396L29.550013 195.32396L29.550013 196.38646ZM28.784388 189.32396Q29.284388 189.91771 29.487513 190.46458Q29.690638 190.99583 29.690638 191.62083Q29.690638 192.65208 29.190638 193.19896Q28.690638 193.74583 27.909388 193.74583Q27.456263 193.74583 27.081263 193.54271Q26.690638 193.33958 26.471888 192.99583Q26.237513 192.65208 26.128138 192.23021Q26.034388 191.93333 25.956263 191.29271Q25.815638 190.02708 25.596888 189.41771Q25.378138 189.41771 25.331263 189.41771Q24.675013 189.41771 24.409388 189.71458Q24.065638 190.12083 24.065638 190.91771Q24.065638 191.65208 24.331263 192.01146Q24.581263 192.37083 25.237513 192.54271L25.096888 193.57396Q24.440638 193.43333 24.034388 193.10521Q23.628138 192.77708 23.409388 192.16771Q23.190638 191.55833 23.190638 190.76146Q23.190638 189.96458 23.378138 189.46458Q23.565638 188.96458 23.846888 188.73021Q24.128138 188.49583 24.565638 188.40208Q24.831263 188.35521 25.534388 188.35521L26.940638 188.35521Q28.409388 188.35521 28.800013 188.29271Q29.190638 188.21458 29.550013 188.01146L29.550013 189.12083Q29.221888 189.27708 28.784388 189.32396ZM26.425013 189.41771Q26.659388 189.99583 26.831263 191.13646Q26.925013 191.79271 27.050013 192.05833Q27.159388 192.32396 27.378138 192.48021Q27.596888 192.62083 27.878138 192.62083Q28.300013 192.62083 28.581263 192.30833Q28.862513 191.98021 28.862513 191.37083Q28.862513 190.76146 28.596888 190.29271Q28.331263 189.80833 27.862513 189.58958Q27.503138 189.41771 26.815638 189.41771L26.425013 189.41771Z" fill-rule="nonzero"/><path fill="#000000" d="M65.05 332.21564Q65.05 330.6844 65.3625 329.7625Q65.675 328.825 66.28438 328.325Q66.90938 327.825 67.84688 327.825Q68.53438 327.825 69.05 328.10626Q69.58125 328.3875 69.925 328.91876Q70.26875 329.4344 70.45625 330.1844Q70.64375 330.9344 70.64375 332.21564Q70.64375 333.73126 70.33125 334.65314Q70.03438 335.575 69.40938 336.09064Q68.8 336.59064 67.84688 336.59064Q66.6125 336.59064 65.89375 335.7Q65.05 334.6375 65.05 332.21564ZM66.12813 332.21564Q66.12813 334.325 66.62813 335.02814Q67.12813 335.73126 67.84688 335.73126Q68.58125 335.73126 69.06563 335.02814Q69.56563 334.325 69.56563 332.21564Q69.56563 330.09064 69.06563 329.40314Q68.58125 328.7 67.83125 328.7Q67.1125 328.7 66.675 329.3094Q66.12813 330.09064 66.12813 332.21564Z" fill-rule="nonzero"/><path fill="#000000" d="M69.01875 268.81668L67.97188 268.81668L67.97188 262.09793Q67.58125 262.4573 66.95625 262.8323Q66.34688 263.19168 65.8625 263.36356L65.8625 262.34793Q66.7375 261.92606 67.39375 261.34793Q68.06563 260.75418 68.34688 260.19168L69.01875 260.19168L69.01875 268.81668Z" fill-rule="nonzero"/><path fill="#000000" d="M70.59688 200.16771L70.59688 201.18333L64.90938 201.18333Q64.90938 200.80833 65.03438 200.44896Q65.25313 199.87083 65.72188 199.30833Q66.20625 198.74583 67.1125 198.01146Q68.51875 196.85521 69.00313 196.18333Q69.50313 195.51146 69.50313 194.91771Q69.50313 194.29271 69.05 193.87083Q68.59688 193.43333 67.87813 193.43333Q67.1125 193.43333 66.65938 193.88646Q66.20625 194.33958 66.19063 195.15208L65.1125 195.04271Q65.22188 193.82396 65.94063 193.19896Q66.675 192.55833 67.90938 192.55833Q69.14375 192.55833 69.8625 193.24583Q70.58125 193.93333 70.58125 194.94896Q70.58125 195.46458 70.3625 195.96458Q70.15938 196.44896 69.65938 197.01146Q69.175 197.55833 68.05 198.51146Q67.09688 199.30833 66.81563 199.60521Q66.55 199.88646 66.37813 200.16771L70.59688 200.16771Z" fill-rule="nonzero"/><path fill="#000000" d="M65.05 131.28438L66.1125 131.14375Q66.28438 132.03438 66.72188 132.44063Q67.15938 132.83125 67.78438 132.83125Q68.53438 132.83125 69.05 132.31563Q69.56563 131.8 69.56563 131.03438Q69.56563 130.31563 69.08125 129.84688Q68.6125 129.3625 67.87813 129.3625Q67.58125 129.3625 67.12813 129.4875L67.25313 128.55Q67.3625 128.56563 67.425 128.56563Q68.09688 128.56563 68.62813 128.22188Q69.175 127.8625 69.175 127.12813Q69.175 126.55 68.78438 126.175Q68.39375 125.78438 67.76875 125.78438Q67.15938 125.78438 66.7375 126.175Q66.33125 126.56563 66.22188 127.33125L65.15938 127.14375Q65.34688 126.09688 66.03438 125.51875Q66.72188 124.925 67.7375 124.925Q68.44063 124.925 69.03438 125.2375Q69.62813 125.53438 69.94063 126.05Q70.25313 126.56563 70.25313 127.15938Q70.25313 127.70625 69.95625 128.175Q69.65938 128.62813 69.08125 128.89375Q69.83125 129.06563 70.25313 129.62813Q70.675 130.175 70.675 131.01875Q70.675 132.14375 69.84688 132.925Q69.03438 133.70625 67.78438 133.70625Q66.65938 133.70625 65.90938 133.03438Q65.15938 132.34688 65.05 131.28438Z" fill-rule="nonzero"/><path fill="#000000" d="M68.425 65.916664L68.425 63.854164L64.70625 63.854164L64.70625 62.885414L68.62813 57.322914L69.4875 57.322914L69.4875 62.885414L70.64375 62.885414L70.64375 63.854164L69.4875 63.854164L69.4875 65.916664L68.425 65.916664ZM68.425 62.885414L68.425 59.02604L65.7375 62.885414L68.425 62.885414Z" fill-rule="nonzero"/><path fill="#000000" d="M147.03522 349.45L147.03522 340.85626L153.23834 340.85626L153.23834 341.8719L148.17584 341.8719L148.17584 344.4969L152.92584 344.4969L152.92584 345.5125L148.17584 345.5125L148.17584 348.4344L153.44147 348.4344L153.44147 349.45L147.03522 349.45ZM154.45709 347.59064L155.48834 347.4344Q155.58209 348.0594 155.97272 348.3875Q156.37897 348.71564 157.11334 348.71564Q157.83209 348.71564 158.17584 348.4344Q158.53522 348.1375 158.53522 347.73126Q158.53522 347.3719 158.22272 347.16876Q158.00397 347.02814 157.14459 346.8094Q155.98834 346.5125 155.53522 346.3094Q155.09772 346.09064 154.86334 345.71564Q154.62897 345.34064 154.62897 344.8719Q154.62897 344.46564 154.81647 344.10626Q155.00397 343.7469 155.33209 343.5125Q155.58209 343.34064 156.00397 343.21564Q156.42584 343.09064 156.92584 343.09064Q157.64459 343.09064 158.19147 343.3094Q158.75397 343.5125 159.01959 343.8719Q159.28522 344.23126 159.37897 344.825L158.34772 344.96564Q158.28522 344.4969 157.94147 344.23126Q157.61334 343.95 156.98834 343.95Q156.26959 343.95 155.95709 344.2Q155.64459 344.4344 155.64459 344.7625Q155.64459 344.96564 155.76959 345.1219Q155.91022 345.29376 156.17584 345.40314Q156.33209 345.46564 157.11334 345.66876Q158.23834 345.98126 158.67584 346.16876Q159.11334 346.35626 159.36334 346.71564Q159.61334 347.075 159.61334 347.6219Q159.61334 348.15314 159.30084 348.6219Q159.00397 349.075 158.42584 349.34064Q157.84772 349.59064 157.11334 349.59064Q155.89459 349.59064 155.25397 349.09064Q154.62897 348.575 154.45709 347.59064ZM165.94147 347.16876L166.97272 347.3094Q166.80084 348.3719 166.09772 348.98126Q165.39459 349.59064 164.37897 349.59064Q163.09772 349.59064 162.31647 348.7625Q161.55084 347.91876 161.55084 346.35626Q161.55084 345.35626 161.87897 344.60626Q162.22272 343.84064 162.89459 343.46564Q163.58209 343.09064 164.39459 343.09064Q165.39459 343.09064 166.03522 343.60626Q166.69147 344.10626 166.87897 345.0594L165.84772 345.21564Q165.70709 344.59064 165.33209 344.27814Q164.95709 343.95 164.42584 343.95Q163.62897 343.95 163.12897 344.52814Q162.62897 345.09064 162.62897 346.325Q162.62897 347.59064 163.11334 348.15314Q163.59772 348.71564 164.36334 348.71564Q164.98834 348.71564 165.39459 348.34064Q165.81647 347.96564 165.94147 347.16876ZM172.12897 347.45L173.22272 347.575Q172.97272 348.52814 172.26959 349.0594Q171.56647 349.59064 170.48834 349.59064Q169.12897 349.59064 168.31647 348.7469Q167.51959 347.90314 167.51959 346.3875Q167.51959 344.825 168.33209 343.96564Q169.14459 343.09064 170.42584 343.09064Q171.67584 343.09064 172.45709 343.9344Q173.25397 344.77814 173.25397 346.325Q173.25397 346.41876 173.25397 346.60626L168.61334 346.60626Q168.67584 347.6375 169.19147 348.1844Q169.70709 348.71564 170.48834 348.71564Q171.06647 348.71564 171.47272 348.41876Q171.89459 348.10626 172.12897 347.45ZM168.67584 345.7469L172.14459 345.7469Q172.08209 344.95 171.75397 344.5594Q171.23834 343.95 170.44147 343.95Q169.70709 343.95 169.20709 344.4344Q168.72272 344.91876 168.67584 345.7469ZM174.87897 349.45L174.87897 343.23126L175.81647 343.23126L175.81647 344.10626Q176.50397 343.09064 177.80084 343.09064Q178.36334 343.09064 178.83209 343.29376Q179.31647 343.4969 179.55084 343.825Q179.78522 344.15314 179.87897 344.59064Q179.92584 344.8875 179.92584 345.6219L179.92584 349.45L178.87897 349.45L178.87897 345.66876Q178.87897 345.0125 178.75397 344.7Q178.62897 344.3875 178.31647 344.2Q178.00397 343.9969 177.58209 343.9969Q176.91022 343.9969 176.41022 344.4344Q175.92584 344.85626 175.92584 346.04376L175.92584 349.45L174.87897 349.45ZM185.94147 348.6844Q185.34772 349.1844 184.80084 349.3875Q184.26959 349.59064 183.64459 349.59064Q182.61334 349.59064 182.06647 349.09064Q181.51959 348.59064 181.51959 347.8094Q181.51959 347.35626 181.72272 346.98126Q181.92584 346.59064 182.26959 346.3719Q182.61334 346.1375 183.03522 346.02814Q183.33209 345.9344 183.97272 345.85626Q185.23834 345.71564 185.84772 345.4969Q185.84772 345.27814 185.84772 345.23126Q185.84772 344.575 185.55084 344.3094Q185.14459 343.96564 184.34772 343.96564Q183.61334 343.96564 183.25397 344.23126Q182.89459 344.48126 182.72272 345.1375L181.69147 344.9969Q181.83209 344.34064 182.16022 343.9344Q182.48834 343.52814 183.09772 343.3094Q183.70709 343.09064 184.50397 343.09064Q185.30084 343.09064 185.80084 343.27814Q186.30084 343.46564 186.53522 343.7469Q186.76959 344.02814 186.86334 344.46564Q186.91022 344.73126 186.91022 345.4344L186.91022 346.84064Q186.91022 348.3094 186.97272 348.7Q187.05084 349.09064 187.25397 349.45L186.14459 349.45Q185.98834 349.1219 185.94147 348.6844ZM185.84772 346.325Q185.26959 346.5594 184.12897 346.73126Q183.47272 346.825 183.20709 346.95Q182.94147 347.0594 182.78522 347.27814Q182.64459 347.4969 182.64459 347.77814Q182.64459 348.2 182.95709 348.48126Q183.28522 348.7625 183.89459 348.7625Q184.50397 348.7625 184.97272 348.4969Q185.45709 348.23126 185.67584 347.7625Q185.84772 347.40314 185.84772 346.71564L185.84772 346.325ZM188.86334 349.45L188.86334 343.23126L189.81647 343.23126L189.81647 344.16876Q190.17584 343.5125 190.47272 343.3094Q190.78522 343.09064 191.16022 343.09064Q191.69147 343.09064 192.23834 343.41876L191.87897 344.40314Q191.48834 344.16876 191.11334 344.16876Q190.75397 344.16876 190.47272 344.3875Q190.20709 344.59064 190.09772 344.96564Q189.91022 345.52814 189.91022 346.1844L189.91022 349.45L188.86334 349.45ZM192.87897 342.075L192.87897 340.85626L193.94147 340.85626L193.94147 342.075L192.87897 342.075ZM192.87897 349.45L192.87897 343.23126L193.94147 343.23126L193.94147 349.45L192.87897 349.45ZM195.48834 346.34064Q195.48834 344.60626 196.44147 343.77814Q197.23834 343.09064 198.39459 343.09064Q199.67584 343.09064 200.48834 343.9344Q201.31647 344.7625 201.31647 346.2469Q201.31647 347.45 200.95709 348.1375Q200.59772 348.825 199.89459 349.21564Q199.20709 349.59064 198.39459 349.59064Q197.09772 349.59064 196.28522 348.7625Q195.48834 347.91876 195.48834 346.34064ZM196.56647 346.34064Q196.56647 347.52814 197.08209 348.1219Q197.61334 348.71564 198.39459 348.71564Q199.19147 348.71564 199.70709 348.1219Q200.22272 347.52814 200.22272 346.3094Q200.22272 345.15314 199.69147 344.5594Q199.17584 343.96564 198.39459 343.96564Q197.61334 343.96564 197.08209 344.5594Q196.56647 345.1375 196.56647 346.34064ZM205.06647 349.45L208.36334 340.85626L209.58209 340.85626L213.09772 349.45L211.81647 349.45L210.80084 346.84064L207.22272 346.84064L206.26959 349.45L205.06647 349.45ZM207.55084 345.91876L210.45709 345.91876L209.56647 343.54376Q209.14459 342.46564 208.95709 341.7625Q208.78522 342.59064 208.48834 343.40314L207.55084 345.91876Z" fill-rule="nonzero"/><path fill="#000000" d="M296.95312 349.45L296.95312 340.85626L303.15625 340.85626L303.15625 341.8719L298.09375 341.8719L298.09375 344.4969L302.84375 344.4969L302.84375 345.5125L298.09375 345.5125L298.09375 348.4344L303.35938 348.4344L303.35938 349.45L296.95312 349.45ZM304.375 347.59064L305.40625 347.4344Q305.5 348.0594 305.89062 348.3875Q306.29688 348.71564 307.03125 348.71564Q307.75 348.71564 308.09375 348.4344Q308.45312 348.1375 308.45312 347.73126Q308.45312 347.3719 308.14062 347.16876Q307.92188 347.02814 307.0625 346.8094Q305.90625 346.5125 305.45312 346.3094Q305.01562 346.09064 304.78125 345.71564Q304.54688 345.34064 304.54688 344.8719Q304.54688 344.46564 304.73438 344.10626Q304.92188 343.7469 305.25 343.5125Q305.5 343.34064 305.92188 343.21564Q306.34375 343.09064 306.84375 343.09064Q307.5625 343.09064 308.10938 343.3094Q308.67188 343.5125 308.9375 343.8719Q309.20312 344.23126 309.29688 344.825L308.26562 344.96564Q308.20312 344.4969 307.85938 344.23126Q307.53125 343.95 306.90625 343.95Q306.1875 343.95 305.875 344.2Q305.5625 344.4344 305.5625 344.7625Q305.5625 344.96564 305.6875 345.1219Q305.82812 345.29376 306.09375 345.40314Q306.25 345.46564 307.03125 345.66876Q308.15625 345.98126 308.59375 346.16876Q309.03125 346.35626 309.28125 346.71564Q309.53125 347.075 309.53125 347.6219Q309.53125 348.15314 309.21875 348.6219Q308.92188 349.075 308.34375 349.34064Q307.76562 349.59064 307.03125 349.59064Q305.8125 349.59064 305.17188 349.09064Q304.54688 348.575 304.375 347.59064ZM315.85938 347.16876L316.89062 347.3094Q316.71875 348.3719 316.01562 348.98126Q315.3125 349.59064 314.29688 349.59064Q313.01562 349.59064 312.23438 348.7625Q311.46875 347.91876 311.46875 346.35626Q311.46875 345.35626 311.79688 344.60626Q312.14062 343.84064 312.8125 343.46564Q313.5 343.09064 314.3125 343.09064Q315.3125 343.09064 315.95312 343.60626Q316.60938 344.10626 316.79688 345.0594L315.76562 345.21564Q315.625 344.59064 315.25 344.27814Q314.875 343.95 314.34375 343.95Q313.54688 343.95 313.04688 344.52814Q312.54688 345.09064 312.54688 346.325Q312.54688 347.59064 313.03125 348.15314Q313.51562 348.71564 314.28125 348.71564Q314.90625 348.71564 315.3125 348.34064Q315.73438 347.96564 315.85938 347.16876ZM322.04688 347.45L323.14062 347.575Q322.89062 348.52814 322.1875 349.0594Q321.48438 349.59064 320.40625 349.59064Q319.04688 349.59064 318.23438 348.7469Q317.4375 347.90314 317.4375 346.3875Q317.4375 344.825 318.25 343.96564Q319.0625 343.09064 320.34375 343.09064Q321.59375 343.09064 322.375 343.9344Q323.17188 344.77814 323.17188 346.325Q323.17188 346.41876 323.17188 346.60626L318.53125 346.60626Q318.59375 347.6375 319.10938 348.1844Q319.625 348.71564 320.40625 348.71564Q320.98438 348.71564 321.39062 348.41876Q321.8125 348.10626 322.04688 347.45ZM318.59375 345.7469L322.0625 345.7469Q322.0 344.95 321.67188 344.5594Q321.15625 343.95 320.35938 343.95Q319.625 343.95 319.125 344.4344Q318.64062 344.91876 318.59375 345.7469ZM324.79688 349.45L324.79688 343.23126L325.73438 343.23126L325.73438 344.10626Q326.42188 343.09064 327.71875 343.09064Q328.28125 343.09064 328.75 343.29376Q329.23438 343.4969 329.46875 343.825Q329.70312 344.15314 329.79688 344.59064Q329.84375 344.8875 329.84375 345.6219L329.84375 349.45L328.79688 349.45L328.79688 345.66876Q328.79688 345.0125 328.67188 344.7Q328.54688 344.3875 328.23438 344.2Q327.92188 343.9969 327.5 343.9969Q326.82812 343.9969 326.32812 344.4344Q325.84375 344.85626 325.84375 346.04376L325.84375 349.45L324.79688 349.45ZM335.85938 348.6844Q335.26562 349.1844 334.71875 349.3875Q334.1875 349.59064 333.5625 349.59064Q332.53125 349.59064 331.98438 349.09064Q331.4375 348.59064 331.4375 347.8094Q331.4375 347.35626 331.64062 346.98126Q331.84375 346.59064 332.1875 346.3719Q332.53125 346.1375 332.95312 346.02814Q333.25 345.9344 333.89062 345.85626Q335.15625 345.71564 335.76562 345.4969Q335.76562 345.27814 335.76562 345.23126Q335.76562 344.575 335.46875 344.3094Q335.0625 343.96564 334.26562 343.96564Q333.53125 343.96564 333.17188 344.23126Q332.8125 344.48126 332.64062 345.1375L331.60938 344.9969Q331.75 344.34064 332.07812 343.9344Q332.40625 343.52814 333.01562 343.3094Q333.625 343.09064 334.42188 343.09064Q335.21875 343.09064 335.71875 343.27814Q336.21875 343.46564 336.45312 343.7469Q336.6875 344.02814 336.78125 344.46564Q336.82812 344.73126 336.82812 345.4344L336.82812 346.84064Q336.82812 348.3094 336.89062 348.7Q336.96875 349.09064 337.17188 349.45L336.0625 349.45Q335.90625 349.1219 335.85938 348.6844ZM335.76562 346.325Q335.1875 346.5594 334.04688 346.73126Q333.39062 346.825 333.125 346.95Q332.85938 347.0594 332.70312 347.27814Q332.5625 347.4969 332.5625 347.77814Q332.5625 348.2 332.875 348.48126Q333.20312 348.7625 333.8125 348.7625Q334.42188 348.7625 334.89062 348.4969Q335.375 348.23126 335.59375 347.7625Q335.76562 347.40314 335.76562 346.71564L335.76562 346.325ZM338.78125 349.45L338.78125 343.23126L339.73438 343.23126L339.73438 344.16876Q340.09375 343.5125 340.39062 343.3094Q340.70312 343.09064 341.07812 343.09064Q341.60938 343.09064 342.15625 343.41876L341.79688 344.40314Q341.40625 344.16876 341.03125 344.16876Q340.67188 344.16876 340.39062 344.3875Q340.125 344.59064 340.01562 344.96564Q339.82812 345.52814 339.82812 346.1844L339.82812 349.45L338.78125 349.45ZM342.79688 342.075L342.79688 340.85626L343.85938 340.85626L343.85938 342.075L342.79688 342.075ZM342.79688 349.45L342.79688 343.23126L343.85938 343.23126L343.85938 349.45L342.79688 349.45ZM345.40625 346.34064Q345.40625 344.60626 346.35938 343.77814Q347.15625 343.09064 348.3125 343.09064Q349.59375 343.09064 350.40625 343.9344Q351.23438 344.7625 351.23438 346.2469Q351.23438 347.45 350.875 348.1375Q350.51562 348.825 349.8125 349.21564Q349.125 349.59064 348.3125 349.59064Q347.01562 349.59064 346.20312 348.7625Q345.40625 347.91876 345.40625 346.34064ZM346.48438 346.34064Q346.48438 347.52814 347.0 348.1219Q347.53125 348.71564 348.3125 348.71564Q349.10938 348.71564 349.625 348.1219Q350.14062 347.52814 350.14062 346.3094Q350.14062 345.15314 349.60938 344.5594Q349.09375 343.96564 348.3125 343.96564Q347.53125 343.96564 347.0 344.5594Q346.48438 345.1375 346.48438 346.34064ZM355.875 349.45L355.875 340.85626L359.10938 340.85626Q360.09375 340.85626 360.6875 341.1219Q361.28125 341.3875 361.60938 341.9344Q361.95312 342.46564 361.95312 343.0594Q361.95312 343.60626 361.65625 344.09064Q361.35938 344.575 360.75 344.8719Q361.53125 345.10626 361.9375 345.66876Q362.35938 346.21564 362.35938 346.96564Q362.35938 347.5594 362.10938 348.09064Q361.85938 348.60626 361.48438 348.8875Q361.10938 349.16876 360.53125 349.3094Q359.96875 349.45 359.15625 349.45L355.875 349.45ZM357.01562 344.46564L358.875 344.46564Q359.625 344.46564 359.95312 344.3719Q360.39062 344.2469 360.60938 343.95Q360.82812 343.6375 360.82812 343.1844Q360.82812 342.7625 360.625 342.4344Q360.42188 342.10626 360.03125 341.9969Q359.65625 341.8719 358.73438 341.8719L357.01562 341.8719L357.01562 344.46564ZM357.01562 348.4344L359.15625 348.4344Q359.70312 348.4344 359.92188 348.3875Q360.32812 348.325 360.57812 348.16876Q360.84375 347.9969 361.01562 347.6844Q361.1875 347.3719 361.1875 346.96564Q361.1875 346.48126 360.9375 346.1219Q360.70312 345.7625 360.26562 345.6219Q359.82812 345.48126 359.0 345.48126L357.01562 345.48126L357.01562 348.4344Z" fill-rule="nonzero"/><path fill="#000000" d="M446.87103 349.45L446.87103 340.85626L453.07416 340.85626L453.07416 341.8719L448.01166 341.8719L448.01166 344.4969L452.76166 344.4969L452.76166 345.5125L448.01166 345.5125L448.01166 348.4344L453.27728 348.4344L453.27728 349.45L446.87103 349.45ZM454.2929 347.59064L455.32416 347.4344Q455.4179 348.0594 455.80853 348.3875Q456.21478 348.71564 456.94916 348.71564Q457.6679 348.71564 458.01166 348.4344Q458.37103 348.1375 458.37103 347.73126Q458.37103 347.3719 458.05853 347.16876Q457.83978 347.02814 456.9804 346.8094Q455.82416 346.5125 455.37103 346.3094Q454.93353 346.09064 454.69916 345.71564Q454.46478 345.34064 454.46478 344.8719Q454.46478 344.46564 454.65228 344.10626Q454.83978 343.7469 455.1679 343.5125Q455.4179 343.34064 455.83978 343.21564Q456.26166 343.09064 456.76166 343.09064Q457.4804 343.09064 458.02728 343.3094Q458.58978 343.5125 458.8554 343.8719Q459.12103 344.23126 459.21478 344.825L458.18353 344.96564Q458.12103 344.4969 457.77728 344.23126Q457.44916 343.95 456.82416 343.95Q456.1054 343.95 455.7929 344.2Q455.4804 344.4344 455.4804 344.7625Q455.4804 344.96564 455.6054 345.1219Q455.74603 345.29376 456.01166 345.40314Q456.1679 345.46564 456.94916 345.66876Q458.07416 345.98126 458.51166 346.16876Q458.94916 346.35626 459.19916 346.71564Q459.44916 347.075 459.44916 347.6219Q459.44916 348.15314 459.13666 348.6219Q458.83978 349.075 458.26166 349.34064Q457.68353 349.59064 456.94916 349.59064Q455.7304 349.59064 455.08978 349.09064Q454.46478 348.575 454.2929 347.59064ZM465.77728 347.16876L466.80853 347.3094Q466.63666 348.3719 465.93353 348.98126Q465.2304 349.59064 464.21478 349.59064Q462.93353 349.59064 462.15228 348.7625Q461.38666 347.91876 461.38666 346.35626Q461.38666 345.35626 461.71478 344.60626Q462.05853 343.84064 462.7304 343.46564Q463.4179 343.09064 464.2304 343.09064Q465.2304 343.09064 465.87103 343.60626Q466.52728 344.10626 466.71478 345.0594L465.68353 345.21564Q465.5429 344.59064 465.1679 344.27814Q464.7929 343.95 464.26166 343.95Q463.46478 343.95 462.96478 344.52814Q462.46478 345.09064 462.46478 346.325Q462.46478 347.59064 462.94916 348.15314Q463.43353 348.71564 464.19916 348.71564Q464.82416 348.71564 465.2304 348.34064Q465.65228 347.96564 465.77728 347.16876ZM471.96478 347.45L473.05853 347.575Q472.80853 348.52814 472.1054 349.0594Q471.40228 349.59064 470.32416 349.59064Q468.96478 349.59064 468.15228 348.7469Q467.3554 347.90314 467.3554 346.3875Q467.3554 344.825 468.1679 343.96564Q468.9804 343.09064 470.26166 343.09064Q471.51166 343.09064 472.2929 343.9344Q473.08978 344.77814 473.08978 346.325Q473.08978 346.41876 473.08978 346.60626L468.44916 346.60626Q468.51166 347.6375 469.02728 348.1844Q469.5429 348.71564 470.32416 348.71564Q470.90228 348.71564 471.30853 348.41876Q471.7304 348.10626 471.96478 347.45ZM468.51166 345.7469L471.9804 345.7469Q471.9179 344.95 471.58978 344.5594Q471.07416 343.95 470.27728 343.95Q469.5429 343.95 469.0429 344.4344Q468.55853 344.91876 468.51166 345.7469ZM474.71478 349.45L474.71478 343.23126L475.65228 343.23126L475.65228 344.10626Q476.33978 343.09064 477.63666 343.09064Q478.19916 343.09064 478.6679 343.29376Q479.15228 343.4969 479.38666 343.825Q479.62103 344.15314 479.71478 344.59064Q479.76166 344.8875 479.76166 345.6219L479.76166 349.45L478.71478 349.45L478.71478 345.66876Q478.71478 345.0125 478.58978 344.7Q478.46478 344.3875 478.15228 344.2Q477.83978 343.9969 477.4179 343.9969Q476.74603 343.9969 476.24603 344.4344Q475.76166 344.85626 475.76166 346.04376L475.76166 349.45L474.71478 349.45ZM485.77728 348.6844Q485.18353 349.1844 484.63666 349.3875Q484.1054 349.59064 483.4804 349.59064Q482.44916 349.59064 481.90228 349.09064Q481.3554 348.59064 481.3554 347.8094Q481.3554 347.35626 481.55853 346.98126Q481.76166 346.59064 482.1054 346.3719Q482.44916 346.1375 482.87103 346.02814Q483.1679 345.9344 483.80853 345.85626Q485.07416 345.71564 485.68353 345.4969Q485.68353 345.27814 485.68353 345.23126Q485.68353 344.575 485.38666 344.3094Q484.9804 343.96564 484.18353 343.96564Q483.44916 343.96564 483.08978 344.23126Q482.7304 344.48126 482.55853 345.1375L481.52728 344.9969Q481.6679 344.34064 481.99603 343.9344Q482.32416 343.52814 482.93353 343.3094Q483.5429 343.09064 484.33978 343.09064Q485.13666 343.09064 485.63666 343.27814Q486.13666 343.46564 486.37103 343.7469Q486.6054 344.02814 486.69916 344.46564Q486.74603 344.73126 486.74603 345.4344L486.74603 346.84064Q486.74603 348.3094 486.80853 348.7Q486.88666 349.09064 487.08978 349.45L485.9804 349.45Q485.82416 349.1219 485.77728 348.6844ZM485.68353 346.325Q485.1054 346.5594 483.96478 346.73126Q483.30853 346.825 483.0429 346.95Q482.77728 347.0594 482.62103 347.27814Q482.4804 347.4969 482.4804 347.77814Q482.4804 348.2 482.7929 348.48126Q483.12103 348.7625 483.7304 348.7625Q484.33978 348.7625 484.80853 348.4969Q485.2929 348.23126 485.51166 347.7625Q485.68353 347.40314 485.68353 346.71564L485.68353 346.325ZM488.69916 349.45L488.69916 343.23126L489.65228 343.23126L489.65228 344.16876Q490.01166 343.5125 490.30853 343.3094Q490.62103 343.09064 490.99603 343.09064Q491.52728 343.09064 492.07416 343.41876L491.71478 344.40314Q491.32416 344.16876 490.94916 344.16876Q490.58978 344.16876 490.30853 344.3875Q490.0429 344.59064 489.93353 344.96564Q489.74603 345.52814 489.74603 346.1844L489.74603 349.45L488.69916 349.45ZM492.71478 342.075L492.71478 340.85626L493.77728 340.85626L493.77728 342.075L492.71478 342.075ZM492.71478 349.45L492.71478 343.23126L493.77728 343.23126L493.77728 349.45L492.71478 349.45ZM495.32416 346.34064Q495.32416 344.60626 496.27728 343.77814Q497.07416 343.09064 498.2304 343.09064Q499.51166 343.09064 500.32416 343.9344Q501.15228 344.7625 501.15228 346.2469Q501.15228 347.45 500.7929 348.1375Q500.43353 348.825 499.7304 349.21564Q499.0429 349.59064 498.2304 349.59064Q496.93353 349.59064 496.12103 348.7625Q495.32416 347.91876 495.32416 346.34064ZM496.40228 346.34064Q496.40228 347.52814 496.9179 348.1219Q497.44916 348.71564 498.2304 348.71564Q499.02728 348.71564 499.5429 348.1219Q500.05853 347.52814 500.05853 346.3094Q500.05853 345.15314 499.52728 344.5594Q499.01166 343.96564 498.2304 343.96564Q497.44916 343.96564 496.9179 344.5594Q496.40228 345.1375 496.40228 346.34064ZM511.9804 346.4344L513.1054 346.73126Q512.74603 348.1219 511.82416 348.85626Q510.90228 349.59064 509.55853 349.59064Q508.1679 349.59064 507.2929 349.02814Q506.4179 348.46564 505.96478 347.40314Q505.51166 346.325 505.51166 345.09064Q505.51166 343.7469 506.02728 342.7469Q506.5429 341.7469 507.4804 341.23126Q508.43353 340.71564 509.57416 340.71564Q510.8554 340.71564 511.7304 341.3719Q512.62103 342.02814 512.9648 343.21564L511.83978 343.48126Q511.5429 342.54376 510.96478 342.1219Q510.40228 341.6844 509.5429 341.6844Q508.55853 341.6844 507.88666 342.16876Q507.2304 342.6375 506.94916 343.4344Q506.68353 344.23126 506.68353 345.09064Q506.68353 346.1844 506.99603 346.9969Q507.32416 347.8094 507.99603 348.21564Q508.6679 348.6219 509.46478 348.6219Q510.4179 348.6219 511.07416 348.075Q511.74603 347.52814 511.9804 346.4344Z" fill-rule="nonzero"/><path fill="#757575" d="M20.034374 37.55L20.034374 23.2375L22.89375 23.2375L26.26875 33.3625Q26.7375 34.784374 26.95625 35.4875Q27.20625 34.70625 27.721874 33.190624L31.14375 23.2375L33.690624 23.2375L33.690624 37.55L31.878124 37.55L31.878124 25.565624L27.70625 37.55L26.003124 37.55L21.8625 25.3625L21.8625 37.55L20.034374 37.55ZM43.971874 34.20625L45.784374 34.440624Q45.3625 36.01875 44.190624 36.909374Q43.034374 37.784374 41.221874 37.784374Q38.95625 37.784374 37.6125 36.39375Q36.284374 34.9875 36.284374 32.45625Q36.284374 29.83125 37.628124 28.39375Q38.971874 26.940624 41.128124 26.940624Q43.20625 26.940624 44.51875 28.3625Q45.846874 29.76875 45.846874 32.346874Q45.846874 32.503124 45.83125 32.815624L38.096874 32.815624Q38.190624 34.51875 39.065624 35.425Q39.940624 36.33125 41.2375 36.33125Q42.20625 36.33125 42.878124 35.83125Q43.565624 35.315624 43.971874 34.20625ZM38.190624 31.3625L43.9875 31.3625Q43.878124 30.065624 43.33125 29.409374Q42.4875 28.39375 41.14375 28.39375Q39.940624 28.39375 39.1125 29.20625Q38.284374 30.003124 38.190624 31.3625ZM54.596874 37.55L54.596874 36.2375Q53.6125 37.784374 51.690624 37.784374Q50.45625 37.784374 49.409374 37.096874Q48.378124 36.409374 47.8 35.190624Q47.2375 33.971874 47.2375 32.378124Q47.2375 30.815624 47.753124 29.55Q48.26875 28.284374 49.3 27.6125Q50.346874 26.940624 51.6125 26.940624Q52.55 26.940624 53.284374 27.346874Q54.01875 27.7375 54.4875 28.3625L54.4875 23.2375L56.221874 23.2375L56.221874 37.55L54.596874 37.55ZM49.034374 32.378124Q49.034374 34.3625 49.878124 35.346874Q50.721874 36.33125 51.8625 36.33125Q53.01875 36.33125 53.815624 35.39375Q54.628124 34.45625 54.628124 32.51875Q54.628124 30.39375 53.8 29.39375Q52.9875 28.39375 51.784374 28.39375Q50.6125 28.39375 49.815624 29.3625Q49.034374 30.315624 49.034374 32.378124ZM58.878124 25.253124L58.878124 23.2375L60.64375 23.2375L60.64375 25.253124L58.878124 25.253124ZM58.878124 37.55L58.878124 27.175L60.64375 27.175L60.64375 37.55L58.878124 37.55ZM69.64375 36.26875Q68.65938 37.096874 67.75313 37.440624Q66.84688 37.784374 65.81563 37.784374Q64.1125 37.784374 63.190624 36.95625Q62.26875 36.1125 62.26875 34.815624Q62.26875 34.05 62.6125 33.425Q62.971874 32.8 63.534374 32.425Q64.09688 32.034374 64.8 31.83125Q65.31563 31.70625 66.3625 31.565624Q68.4875 31.315624 69.4875 30.971874Q69.50313 30.6125 69.50313 30.503124Q69.50313 29.440624 69.00313 28.9875Q68.33125 28.39375 67.00313 28.39375Q65.75313 28.39375 65.15938 28.83125Q64.58125 29.26875 64.3 30.378124L62.58125 30.14375Q62.815624 29.034374 63.346874 28.3625Q63.878124 27.675 64.89375 27.315624Q65.90938 26.940624 67.25313 26.940624Q68.58125 26.940624 69.40938 27.253124Q70.2375 27.565624 70.62813 28.05Q71.01875 28.51875 71.175 29.2375Q71.26875 29.690624 71.26875 30.8625L71.26875 33.20625Q71.26875 35.659374 71.37813 36.315624Q71.4875 36.95625 71.83125 37.55L69.9875 37.55Q69.72188 37.003124 69.64375 36.26875ZM69.4875 32.346874Q68.53438 32.7375 66.6125 33.003124Q65.53438 33.159374 65.08125 33.3625Q64.64375 33.55 64.39375 33.925Q64.14375 34.3 64.14375 34.76875Q64.14375 35.471874 64.675 35.940624Q65.20625 36.409374 66.2375 36.409374Q67.25313 36.409374 68.03438 35.971874Q68.83125 35.51875 69.20625 34.753124Q69.4875 34.14375 69.4875 32.9875L69.4875 32.346874ZM86.64375 33.753124L88.3625 33.971874Q88.08125 35.76875 86.90938 36.784374Q85.75313 37.784374 84.05 37.784374Q81.925 37.784374 80.62813 36.39375Q79.33125 35.003124 79.33125 32.409374Q79.33125 30.721874 79.87813 29.471874Q80.44063 28.20625 81.58125 27.58125Q82.72188 26.940624 84.06563 26.940624Q85.75313 26.940624 86.81563 27.8Q87.89375 28.659374 88.20625 30.221874L86.4875 30.4875Q86.25313 29.440624 85.62813 28.925Q85.00313 28.39375 84.12813 28.39375Q82.8 28.39375 81.97188 29.346874Q81.14375 30.3 81.14375 32.346874Q81.14375 34.440624 81.94063 35.39375Q82.7375 36.33125 84.03438 36.33125Q85.06563 36.33125 85.75313 35.70625Q86.45625 35.065624 86.64375 33.753124ZM89.22188 32.3625Q89.22188 29.4875 90.81563 28.096874Q92.15938 26.940624 94.08125 26.940624Q96.22188 26.940624 97.56563 28.346874Q98.925 29.753124 98.925 32.221874Q98.925 34.221874 98.33125 35.378124Q97.7375 36.51875 96.58125 37.159374Q95.44063 37.784374 94.08125 37.784374Q91.89375 37.784374 90.55 36.39375Q89.22188 34.9875 89.22188 32.3625ZM91.01875 32.3625Q91.01875 34.3625 91.87813 35.346874Q92.75313 36.33125 94.08125 36.33125Q95.39375 36.33125 96.25313 35.346874Q97.12813 34.346874 97.12813 32.3Q97.12813 30.378124 96.25313 29.39375Q95.37813 28.39375 94.08125 28.39375Q92.75313 28.39375 91.87813 29.39375Q91.01875 30.378124 91.01875 32.3625ZM100.8625 37.55L100.8625 27.175L102.45625 27.175L102.45625 28.659374Q103.59688 26.940624 105.75313 26.940624Q106.69063 26.940624 107.47188 27.284374Q108.26875 27.6125 108.65938 28.159374Q109.05 28.70625 109.20625 29.45625Q109.3 29.95625 109.3 31.175L109.3 37.55L107.53438 37.55L107.53438 31.2375Q107.53438 30.159374 107.33125 29.628124Q107.12813 29.096874 106.59688 28.784374Q106.08125 28.471874 105.37813 28.471874Q104.25313 28.471874 103.44063 29.190624Q102.62813 29.89375 102.62813 31.878124L102.62813 37.55L100.8625 37.55ZM114.70625 35.971874L114.95625 37.534374Q114.22188 37.690624 113.62813 37.690624Q112.675 37.690624 112.14375 37.39375Q111.62813 37.08125 111.40938 36.596874Q111.19063 36.096874 111.19063 34.51875L111.19063 28.55L109.90938 28.55L109.90938 27.175L111.19063 27.175L111.19063 24.6125L112.94063 23.55L112.94063 27.175L114.70625 27.175L114.70625 28.55L112.94063 28.55L112.94063 34.6125Q112.94063 35.3625 113.03438 35.58125Q113.12813 35.784374 113.33125 35.925Q113.55 36.05 113.94063 36.05Q114.22188 36.05 114.70625 35.971874ZM116.84688 37.55L116.84688 27.175L118.425 27.175L118.425 28.753124Q119.03438 27.64375 119.55 27.3Q120.06563 26.940624 120.675 26.940624Q121.56563 26.940624 122.4875 27.503124L121.87813 29.14375Q121.2375 28.753124 120.59688 28.753124Q120.01875 28.753124 119.55 29.1125Q119.09688 29.45625 118.89375 30.065624Q118.6125 31.003124 118.6125 32.1125L118.6125 37.55L116.84688 37.55ZM130.64375 36.26875Q129.65938 37.096874 128.75313 37.440624Q127.84688 37.784374 126.81563 37.784374Q125.1125 37.784374 124.19063 36.95625Q123.26875 36.1125 123.26875 34.815624Q123.26875 34.05 123.6125 33.425Q123.97188 32.8 124.53438 32.425Q125.09688 32.034374 125.8 31.83125Q126.31563 31.70625 127.3625 31.565624Q129.4875 31.315624 130.4875 30.971874Q130.50313 30.6125 130.50313 30.503124Q130.50313 29.440624 130.00313 28.9875Q129.33125 28.39375 128.00313 28.39375Q126.75313 28.39375 126.15938 28.83125Q125.58125 29.26875 125.3 30.378124L123.58125 30.14375Q123.81563 29.034374 124.34688 28.3625Q124.87813 27.675 125.89375 27.315624Q126.90938 26.940624 128.25313 26.940624Q129.58125 26.940624 130.40938 27.253124Q131.2375 27.565624 131.62813 28.05Q132.01875 28.51875 132.175 29.2375Q132.26875 29.690624 132.26875 30.8625L132.26875 33.20625Q132.26875 35.659374 132.37813 36.315624Q132.4875 36.95625 132.83125 37.55L130.9875 37.55Q130.72188 37.003124 130.64375 36.26875ZM130.4875 32.346874Q129.53438 32.7375 127.6125 33.003124Q126.53438 33.159374 126.08125 33.3625Q125.64375 33.55 125.39375 33.925Q125.14375 34.3 125.14375 34.76875Q125.14375 35.471874 125.675 35.940624Q126.20625 36.409374 127.2375 36.409374Q128.25313 36.409374 129.03438 35.971874Q129.83125 35.51875 130.20625 34.753124Q130.4875 34.14375 130.4875 32.9875L130.4875 32.346874ZM147.00313 37.55L145.2375 37.55L145.2375 26.346874Q144.6125 26.95625 143.58125 27.565624Q142.55 28.159374 141.72188 28.471874L141.72188 26.76875Q143.20625 26.08125 144.3 25.096874Q145.40938 24.096874 145.8625 23.175L147.00313 23.175L147.00313 37.55ZM151.37813 30.4875Q151.37813 27.95625 151.89375 26.409374Q152.425 24.846874 153.45625 24.01875Q154.4875 23.175 156.05 23.175Q157.20625 23.175 158.06563 23.64375Q158.94063 24.096874 159.50313 24.971874Q160.06563 25.846874 160.39375 27.1125Q160.72188 28.3625 160.72188 30.4875Q160.72188 33.003124 160.19063 34.55Q159.675 36.096874 158.64375 36.95625Q157.62813 37.8 156.05 37.8Q153.97188 37.8 152.8 36.315624Q151.37813 34.51875 151.37813 30.4875ZM153.19063 30.4875Q153.19063 34.01875 154.00313 35.190624Q154.83125 36.346874 156.05 36.346874Q157.25313 36.346874 158.08125 35.175Q158.90938 34.003124 158.90938 30.4875Q158.90938 26.95625 158.08125 25.8Q157.25313 24.628124 156.03438 24.628124Q154.81563 24.628124 154.09688 25.659374Q153.19063 26.95625 153.19063 30.4875ZM163.3625 37.55L163.3625 35.55L165.3625 35.55L165.3625 37.55L163.3625 37.55ZM168.37813 30.4875Q168.37813 27.95625 168.89375 26.409374Q169.425 24.846874 170.45625 24.01875Q171.4875 23.175 173.05 23.175Q174.20625 23.175 175.06563 23.64375Q175.94063 24.096874 176.50313 24.971874Q177.06563 25.846874 177.39375 27.1125Q177.72188 28.3625 177.72188 30.4875Q177.72188 33.003124 177.19063 34.55Q176.675 36.096874 175.64375 36.95625Q174.62813 37.8 173.05 37.8Q170.97188 37.8 169.8 36.315624Q168.37813 34.51875 168.37813 30.4875ZM170.19063 30.4875Q170.19063 34.01875 171.00313 35.190624Q171.83125 36.346874 173.05 36.346874Q174.25313 36.346874 175.08125 35.175Q175.90938 34.003124 175.90938 30.4875Q175.90938 26.95625 175.08125 25.8Q174.25313 24.628124 173.03438 24.628124Q171.81563 24.628124 171.09688 25.659374Q170.19063 26.95625 170.19063 30.4875ZM179.37813 30.4875Q179.37813 27.95625 179.89375 26.409374Q180.425 24.846874 181.45625 24.01875Q182.4875 23.175 184.05 23.175Q185.20625 23.175 186.06563 23.64375Q186.94063 24.096874 187.50313 24.971874Q188.06563 25.846874 188.39375 27.1125Q188.72188 28.3625 188.72188 30.4875Q188.72188 33.003124 188.19063 34.55Q187.675 36.096874 186.64375 36.95625Q185.62813 37.8 184.05 37.8Q181.97188 37.8 180.8 36.315624Q179.37813 34.51875 179.37813 30.4875ZM181.19063 30.4875Q181.19063 34.01875 182.00313 35.190624Q182.83125 36.346874 184.05 36.346874Q185.25313 36.346874 186.08125 35.175Q186.90938 34.003124 186.90938 30.4875Q186.90938 26.95625 186.08125 25.8Q185.25313 24.628124 184.03438 24.628124Q182.81563 24.628124 182.09688 25.659374Q181.19063 26.95625 181.19063 30.4875ZM190.37813 30.4875Q190.37813 27.95625 190.89375 26.409374Q191.425 24.846874 192.45625 24.01875Q193.4875 23.175 195.05 23.175Q196.20625 23.175 197.06563 23.64375Q197.94063 24.096874 198.50313 24.971874Q199.06563 25.846874 199.39375 27.1125Q199.72188 28.3625 199.72188 30.4875Q199.72188 33.003124 199.19063 34.55Q198.675 36.096874 197.64375 36.95625Q196.62813 37.8 195.05 37.8Q192.97188 37.8 191.8 36.315624Q190.37813 34.51875 190.37813 30.4875ZM192.19063 30.4875Q192.19063 34.01875 193.00313 35.190624Q193.83125 36.346874 195.05 36.346874Q196.25313 36.346874 197.08125 35.175Q197.90938 34.003124 197.90938 30.4875Q197.90938 26.95625 197.08125 25.8Q196.25313 24.628124 195.03438 24.628124Q193.81563 24.628124 193.09688 25.659374Q192.19063 26.95625 192.19063 30.4875ZM207.15938 34.45625L208.90938 34.175Q209.05 35.221874 209.72188 35.784374Q210.39375 36.33125 211.59688 36.33125Q212.8 36.33125 213.37813 35.846874Q213.97188 35.346874 213.97188 34.690624Q213.97188 34.096874 213.45625 33.753124Q213.09688 33.51875 211.65938 33.159374Q209.72188 32.659374 208.97188 32.315624Q208.2375 31.95625 207.84688 31.33125Q207.45625 30.690624 207.45625 29.925Q207.45625 29.2375 207.76875 28.64375Q208.09688 28.05 208.64375 27.659374Q209.05 27.3625 209.75313 27.159374Q210.47188 26.940624 211.28438 26.940624Q212.50313 26.940624 213.425 27.3Q214.34688 27.64375 214.78438 28.253124Q215.22188 28.846874 215.39375 29.846874L213.675 30.08125Q213.55 29.284374 212.9875 28.846874Q212.425 28.39375 211.40938 28.39375Q210.19063 28.39375 209.675 28.8Q209.15938 29.190624 209.15938 29.721874Q209.15938 30.065624 209.37813 30.346874Q209.58125 30.628124 210.05 30.815624Q210.31563 30.909374 211.59688 31.253124Q213.47188 31.753124 214.20625 32.08125Q214.94063 32.39375 215.3625 33.003124Q215.78438 33.596874 215.78438 34.503124Q215.78438 35.378124 215.26875 36.159374Q214.75313 36.940624 213.78438 37.3625Q212.81563 37.784374 211.59688 37.784374Q209.58125 37.784374 208.51875 36.940624Q207.45625 36.096874 207.15938 34.45625ZM217.87813 25.253124L217.87813 23.2375L219.64375 23.2375L219.64375 25.253124L217.87813 25.253124ZM217.87813 37.55L217.87813 27.175L219.64375 27.175L219.64375 37.55L217.87813 37.55ZM221.8625 37.55L221.8625 27.175L223.44063 27.175L223.44063 28.628124Q223.925 27.878124 224.7375 27.409374Q225.55 26.940624 226.58125 26.940624Q227.7375 26.940624 228.47188 27.425Q229.20625 27.89375 229.51875 28.753124Q230.75313 26.940624 232.72188 26.940624Q234.26875 26.940624 235.09688 27.8Q235.925 28.659374 235.925 30.425L235.925 37.55L234.175 37.55L234.175 31.01875Q234.175 29.95625 234.00313 29.503124Q233.83125 29.034374 233.37813 28.753124Q232.94063 28.471874 232.33125 28.471874Q231.2375 28.471874 230.50313 29.20625Q229.78438 29.925 229.78438 31.51875L229.78438 37.55L228.03438 37.55L228.03438 30.815624Q228.03438 29.64375 227.59688 29.065624Q227.175 28.471874 226.19063 28.471874Q225.45625 28.471874 224.81563 28.8625Q224.19063 29.253124 223.90938 30.003124Q223.62813 30.753124 223.62813 32.175L223.62813 37.55L221.8625 37.55ZM244.65938 37.55L244.65938 36.01875Q243.45625 37.784374 241.37813 37.784374Q240.45625 37.784374 239.65938 37.440624Q238.8625 37.08125 238.47188 36.55Q238.09688 36.01875 237.94063 35.2375Q237.83125 34.721874 237.83125 33.596874L237.83125 27.175L239.58125 27.175L239.58125 32.925Q239.58125 34.3 239.69063 34.784374Q239.8625 35.471874 240.39375 35.878124Q240.94063 36.26875 241.72188 36.26875Q242.51875 36.26875 243.20625 35.8625Q243.90938 35.45625 244.19063 34.76875Q244.4875 34.065624 244.4875 32.7375L244.4875 27.175L246.2375 27.175L246.2375 37.55L244.65938 37.55ZM247.83125 37.55L247.83125 23.2375L249.58125 23.2375L249.58125 37.55L247.83125 37.55ZM258.64374 36.26875Q257.65936 37.096874 256.7531 37.440624Q255.84688 37.784374 254.81563 37.784374Q253.1125 37.784374 252.19063 36.95625Q251.26875 36.1125 251.26875 34.815624Q251.26875 34.05 251.6125 33.425Q251.97188 32.8 252.53438 32.425Q253.09688 32.034374 253.8 31.83125Q254.31563 31.70625 255.3625 31.565624Q257.4875 31.315624 258.4875 30.971874Q258.5031 30.6125 258.5031 30.503124Q258.5031 29.440624 258.0031 28.9875Q257.33124 28.39375 256.0031 28.39375Q254.75313 28.39375 254.15938 28.83125Q253.58125 29.26875 253.3 30.378124L251.58125 30.14375Q251.81563 29.034374 252.34688 28.3625Q252.87813 27.675 253.89375 27.315624Q254.90938 26.940624 256.2531 26.940624Q257.58124 26.940624 258.40936 27.253124Q259.2375 27.565624 259.6281 28.05Q260.01874 28.51875 260.175 29.2375Q260.26874 29.690624 260.26874 30.8625L260.26874 33.20625Q260.26874 35.659374 260.3781 36.315624Q260.4875 36.95625 260.83124 37.55L258.9875 37.55Q258.72186 37.003124 258.64374 36.26875ZM258.4875 32.346874Q257.53436 32.7375 255.6125 33.003124Q254.53438 33.159374 254.08125 33.3625Q253.64375 33.55 253.39375 33.925Q253.14375 34.3 253.14375 34.76875Q253.14375 35.471874 253.675 35.940624Q254.20625 36.409374 255.2375 36.409374Q256.2531 36.409374 257.03436 35.971874Q257.83124 35.51875 258.20624 34.753124Q258.4875 34.14375 258.4875 32.9875L258.4875 32.346874ZM269.64374 33.753124L271.3625 33.971874Q271.08124 35.76875 269.90936 36.784374Q268.7531 37.784374 267.05 37.784374Q264.925 37.784374 263.6281 36.39375Q262.33124 35.003124 262.33124 32.409374Q262.33124 30.721874 262.8781 29.471874Q263.4406 28.20625 264.58124 27.58125Q265.72186 26.940624 267.0656 26.940624Q268.7531 26.940624 269.8156 27.8Q270.89374 28.659374 271.20624 30.221874L269.4875 30.4875Q269.2531 29.440624 268.6281 28.925Q268.0031 28.39375 267.1281 28.39375Q265.8 28.39375 264.97186 29.346874Q264.14374 30.3 264.14374 32.346874Q264.14374 34.440624 264.9406 35.39375Q265.7375 36.33125 267.03436 36.33125Q268.0656 36.33125 268.7531 35.70625Q269.45624 35.065624 269.64374 33.753124ZM272.8781 25.253124L272.8781 23.2375L274.64374 23.2375L274.64374 25.253124L272.8781 25.253124ZM272.8781 37.55L272.8781 27.175L274.64374 27.175L274.64374 37.55L272.8781 37.55ZM276.22186 32.3625Q276.22186 29.4875 277.8156 28.096874Q279.15936 26.940624 281.08124 26.940624Q283.22186 26.940624 284.5656 28.346874Q285.925 29.753124 285.925 32.221874Q285.925 34.221874 285.33124 35.378124Q284.7375 36.51875 283.58124 37.159374Q282.4406 37.784374 281.08124 37.784374Q278.89374 37.784374 277.55 36.39375Q276.22186 34.9875 276.22186 32.3625ZM278.01874 32.3625Q278.01874 34.3625 278.8781 35.346874Q279.7531 36.33125 281.08124 36.33125Q282.39374 36.33125 283.2531 35.346874Q284.1281 34.346874 284.1281 32.3Q284.1281 30.378124 283.2531 29.39375Q282.3781 28.39375 281.08124 28.39375Q279.7531 28.39375 278.8781 29.39375Q278.01874 30.378124 278.01874 32.3625ZM287.8625 37.55L287.8625 27.175L289.45624 27.175L289.45624 28.659374Q290.59686 26.940624 292.7531 26.940624Q293.6906 26.940624 294.47186 27.284374Q295.26874 27.6125 295.65936 28.159374Q296.05 28.70625 296.20624 29.45625Q296.3 29.95625 296.3 31.175L296.3 37.55L294.53436 37.55L294.53436 31.2375Q294.53436 30.159374 294.33124 29.628124Q294.1281 29.096874 293.59686 28.784374Q293.08124 28.471874 292.3781 28.471874Q291.2531 28.471874 290.4406 29.190624Q289.6281 29.89375 289.6281 31.878124L289.6281 37.55L287.8625 37.55ZM304.97186 34.20625L306.78436 34.440624Q306.3625 36.01875 305.1906 36.909374Q304.03436 37.784374 302.22186 37.784374Q299.95624 37.784374 298.6125 36.39375Q297.28436 34.9875 297.28436 32.45625Q297.28436 29.83125 298.6281 28.39375Q299.97186 26.940624 302.1281 26.940624Q304.20624 26.940624 305.51874 28.3625Q306.84686 29.76875 306.84686 32.346874Q306.84686 32.503124 306.83124 32.815624L299.09686 32.815624Q299.1906 34.51875 300.0656 35.425Q300.9406 36.33125 302.2375 36.33125Q303.20624 36.33125 303.8781 35.83125Q304.5656 35.315624 304.97186 34.20625ZM299.1906 31.3625L304.9875 31.3625Q304.8781 30.065624 304.33124 29.409374Q303.4875 28.39375 302.14374 28.39375Q300.9406 28.39375 300.1125 29.20625Q299.28436 30.003124 299.1906 31.3625ZM308.15936 34.45625L309.90936 34.175Q310.05 35.221874 310.72186 35.784374Q311.39374 36.33125 312.59686 36.33125Q313.8 36.33125 314.3781 35.846874Q314.97186 35.346874 314.97186 34.690624Q314.97186 34.096874 314.45624 33.753124Q314.09686 33.51875 312.65936 33.159374Q310.72186 32.659374 309.97186 32.315624Q309.2375 31.95625 308.84686 31.33125Q308.45624 30.690624 308.45624 29.925Q308.45624 29.2375 308.76874 28.64375Q309.09686 28.05 309.64374 27.659374Q310.05 27.3625 310.7531 27.159374Q311.47186 26.940624 312.28436 26.940624Q313.5031 26.940624 314.425 27.3Q315.34686 27.64375 315.78436 28.253124Q316.22186 28.846874 316.39374 29.846874L314.675 30.08125Q314.55 29.284374 313.9875 28.846874Q313.425 28.39375 312.40936 28.39375Q311.1906 28.39375 310.675 28.8Q310.15936 29.190624 310.15936 29.721874Q310.15936 30.065624 310.3781 30.346874Q310.58124 30.628124 311.05 30.815624Q311.3156 30.909374 312.59686 31.253124Q314.47186 31.753124 315.20624 32.08125Q315.9406 32.39375 316.3625 33.003124Q316.78436 33.596874 316.78436 34.503124Q316.78436 35.378124 316.26874 36.159374Q315.7531 36.940624 314.78436 37.3625Q313.8156 37.784374 312.59686 37.784374Q310.58124 37.784374 309.51874 36.940624Q308.45624 36.096874 308.15936 34.45625Z" fill-rule="nonzero"/></svg>